<svg width="34" height="35" viewBox="0 0 34 35" fill="none" xmlns="http://www.w3.org/2000/svg">
<path d="M4.96875 5.91211C8.29557 2.58529 12.306 0.921875 17 0.921875C21.694 0.921875 25.6816 2.58529 28.9629 5.91211C32.2897 9.19336 33.9531 13.181 33.9531 17.875C33.9531 22.569 32.2897 26.5794 28.9629 29.9062C25.6816 33.1875 21.694 34.8281 17 34.8281C12.306 34.8281 8.29557 33.1875 4.96875 29.9062C1.6875 26.5794 0.046875 22.569 0.046875 17.875C0.046875 13.181 1.6875 9.19336 4.96875 5.91211ZM28.2109 8.71484C27.9375 9.07943 27.5729 9.48958 27.1172 9.94531C26.707 10.401 25.8411 11.1074 24.5195 12.0645C23.1979 13.0215 21.7396 13.819 20.1445 14.457C20.5547 15.3685 20.9648 16.3255 21.375 17.3281C24.7018 16.8724 28.0742 17.0091 31.4922 17.7383C31.4466 14.3659 30.3529 11.3581 28.2109 8.71484ZM26.5703 7.07422C24.793 5.47917 22.765 4.4082 20.4863 3.86133C18.2077 3.26888 15.9062 3.24609 13.582 3.79297C15.5417 6.39062 17.3418 9.21615 18.9824 12.2695C20.5319 11.7227 21.9219 11.0163 23.1523 10.1504C24.4284 9.28451 25.2487 8.64648 25.6133 8.23633C26.0234 7.7806 26.3424 7.39323 26.5703 7.07422ZM10.8477 4.81836C9.48047 5.45638 8.25 6.27669 7.15625 7.2793C6.0625 8.2819 5.12826 9.44401 4.35352 10.7656C3.62435 12.0417 3.12305 13.4316 2.84961 14.9355C7.13346 14.9811 11.5768 14.3887 16.1797 13.1582C14.5391 10.196 12.7617 7.41602 10.8477 4.81836ZM2.50781 17.875C2.50781 21.612 3.76107 24.8477 6.26758 27.582C7.04232 26.2148 8.04492 24.8932 9.27539 23.6172C10.5059 22.3411 11.9414 21.179 13.582 20.1309C15.2227 19.0827 16.8861 18.3307 18.5723 17.875C18.2533 17.0547 17.8659 16.2344 17.4102 15.4141C12.4883 16.8724 7.52083 17.556 2.50781 17.4648C2.50781 17.6016 2.50781 17.7383 2.50781 17.875ZM8.11328 29.291C10.2096 30.9772 12.5794 31.9798 15.2227 32.2988C17.8659 32.6178 20.3496 32.2533 22.6738 31.2051C22.0814 27.696 21.056 24.0501 19.5977 20.2676C16.8177 21.179 14.4023 22.5007 12.3516 24.2324C10.3464 25.9186 8.93359 27.6048 8.11328 29.291ZM25.0664 29.9062C28.5755 27.5365 30.6491 24.3008 31.2871 20.1992C28.416 19.2878 25.4082 19.0827 22.2637 19.584C23.5853 23.2298 24.5195 26.6706 25.0664 29.9062Z" fill="#26235C"/>
</svg>
