<svg width="34" height="35" viewBox="0 0 34 35" fill="none" xmlns="http://www.w3.org/2000/svg">
<path d="M11.3945 27.5137C11.3945 27.696 11.2806 27.7871 11.0527 27.7871C10.7793 27.8327 10.6426 27.7415 10.6426 27.5137C10.6426 27.377 10.7565 27.3086 10.9844 27.3086C11.2578 27.263 11.3945 27.3314 11.3945 27.5137ZM9.54883 27.582C9.27539 27.5365 9.16146 27.4225 9.20703 27.2402C9.29818 27.0579 9.45768 27.0124 9.68555 27.1035C9.91341 27.1491 10.0046 27.263 9.95898 27.4453C9.91341 27.6276 9.77669 27.6732 9.54883 27.582ZM12.2832 27.1035C12.5111 27.1035 12.625 27.1719 12.625 27.3086C12.6706 27.4453 12.5794 27.5592 12.3516 27.6504C12.1237 27.696 11.987 27.6276 11.9414 27.4453C11.9414 27.263 12.0553 27.1491 12.2832 27.1035ZM16.7949 0.921875C19.8939 0.921875 22.765 1.65104 25.4082 3.10938C28.0514 4.56771 30.125 6.57292 31.6289 9.125C33.1784 11.6771 33.9531 14.5026 33.9531 17.6016C33.9531 21.3841 32.8822 24.7793 30.7402 27.7871C28.6439 30.7493 25.8867 32.8001 22.4688 33.9395C22.1042 34.0306 21.8079 33.985 21.5801 33.8027C21.3978 33.6204 21.3066 33.3926 21.3066 33.1191C21.3066 33.0736 21.3066 32.3444 21.3066 30.9316C21.3066 29.4733 21.3066 28.2884 21.3066 27.377C21.3066 25.9186 20.9193 24.8704 20.1445 24.2324C21.1471 24.0957 21.9219 23.9818 22.4688 23.8906C23.0156 23.7995 23.6992 23.5944 24.5195 23.2754C25.3398 22.9564 25.9551 22.5462 26.3652 22.0449C26.821 21.5436 27.2083 20.8372 27.5273 19.9258C27.8464 19.0143 28.0059 17.9206 28.0059 16.6445C28.0059 15.7786 27.8691 15.0723 27.5957 14.5254C27.3223 13.9785 26.8665 13.3633 26.2285 12.6797C26.7754 11.2669 26.7298 9.71745 26.0918 8.03125C25.6361 7.89453 25.0208 7.98568 24.2461 8.30469C23.4714 8.57812 22.7878 8.89714 22.1953 9.26172L21.375 9.87695C19.9622 9.4668 18.5039 9.26172 17 9.26172C15.5417 9.26172 14.1289 9.4668 12.7617 9.87695C12.5339 9.69466 12.2148 9.48958 11.8047 9.26172C11.3945 8.98828 10.7565 8.69206 9.89062 8.37305C9.07031 8.00846 8.45508 7.89453 8.04492 8.03125C7.36133 9.71745 7.29297 11.2669 7.83984 12.6797C6.79167 13.819 6.26758 15.1406 6.26758 16.6445C6.26758 17.9206 6.42708 19.0143 6.74609 19.9258C7.0651 20.8372 7.42969 21.5436 7.83984 22.0449C8.25 22.5462 8.84245 22.9564 9.61719 23.2754C10.3919 23.5944 11.0527 23.8223 11.5996 23.959C12.1921 24.0501 12.9668 24.1413 13.9238 24.2324C13.3314 24.7793 12.9668 25.554 12.8301 26.5566C12.3743 26.7389 11.8958 26.8757 11.3945 26.9668C10.9388 27.0579 10.3464 26.9668 9.61719 26.6934C8.88802 26.4199 8.29557 25.8958 7.83984 25.1211C7.56641 24.6198 7.20182 24.2324 6.74609 23.959C6.33594 23.64 5.97135 23.4577 5.65234 23.4121L5.24219 23.3438C4.23958 23.3438 4.19401 23.6855 5.10547 24.3691C5.42448 24.5514 5.74349 24.8477 6.0625 25.2578C6.38151 25.668 6.60938 26.0326 6.74609 26.3516L7.01953 26.8984C7.20182 27.4453 7.52083 27.901 7.97656 28.2656C8.43229 28.6302 8.93359 28.8581 9.48047 28.9492C10.0273 29.0404 10.5514 29.0859 11.0527 29.0859C11.554 29.0859 11.9642 29.0632 12.2832 29.0176L12.7617 28.9492C12.7617 29.4961 12.7617 30.3164 12.7617 31.4102C12.8073 32.5039 12.8301 33.0736 12.8301 33.1191C12.8301 33.3926 12.7161 33.6204 12.4883 33.8027C12.306 33.985 12.0326 34.0306 11.668 33.9395C8.20443 32.8001 5.40169 30.7493 3.25977 27.7871C1.11784 24.7793 0.046875 21.3841 0.046875 17.6016C0.046875 12.862 1.64193 8.89714 4.83203 5.70703C8.06771 2.51693 12.0553 0.921875 16.7949 0.921875ZM6.67773 24.5059C6.76888 24.4147 6.88281 24.4375 7.01953 24.5742C7.15625 24.7109 7.17904 24.8249 7.08789 24.916C6.99674 25.0072 6.88281 24.9844 6.74609 24.8477C6.60938 24.7109 6.58659 24.597 6.67773 24.5059ZM5.92578 23.959C6.01693 23.8678 6.13086 23.8451 6.26758 23.8906C6.4043 23.9818 6.44987 24.0729 6.4043 24.1641C6.35872 24.3008 6.26758 24.3236 6.13086 24.2324C5.94857 24.1413 5.88021 24.0501 5.92578 23.959ZM8.18164 26.3516C8.27279 26.2148 8.40951 26.2376 8.5918 26.4199C8.77409 26.6022 8.81966 26.7617 8.72852 26.8984C8.5918 27.0352 8.43229 27.0124 8.25 26.8301C8.06771 26.6478 8.04492 26.4883 8.18164 26.3516ZM7.36133 25.3945C7.49805 25.2578 7.63477 25.3034 7.77148 25.5312C7.9082 25.7135 7.9082 25.8503 7.77148 25.9414C7.63477 26.0326 7.49805 25.987 7.36133 25.8047C7.27018 25.5768 7.27018 25.4401 7.36133 25.3945Z" fill="#26235C"/>
</svg>
