<svg width="32" height="32" viewBox="0 0 32 32" fill="none" xmlns="http://www.w3.org/2000/svg">
<path d="M16 8.01367C20.3066 8.01367 23.8613 11.5684 23.8613 15.875C23.8613 20.25 20.3066 23.7363 16 23.7363C11.625 23.7363 8.13867 20.25 8.13867 15.875C8.13867 11.5684 11.625 8.01367 16 8.01367ZM16 21.002C18.8027 21.002 21.0586 18.7461 21.0586 15.875C21.0586 13.0723 18.8027 10.8164 16 10.8164C13.1289 10.8164 10.873 13.0723 10.873 15.875C10.873 18.7461 13.1973 21.002 16 21.002ZM25.9805 7.74023C25.9805 8.76562 25.1602 9.58594 24.1348 9.58594C23.1094 9.58594 22.2891 8.76562 22.2891 7.74023C22.2891 6.71484 23.1094 5.89453 24.1348 5.89453C25.1602 5.89453 25.9805 6.71484 25.9805 7.74023ZM31.1758 9.58594C31.3125 12.1152 31.3125 19.7031 31.1758 22.2324C31.0391 24.6934 30.4922 26.8125 28.7148 28.6582C26.9375 30.4355 24.75 30.9824 22.2891 31.1191C19.7598 31.2559 12.1719 31.2559 9.64258 31.1191C7.18164 30.9824 5.0625 30.4355 3.2168 28.6582C1.43945 26.8125 0.892578 24.6934 0.755859 22.2324C0.619141 19.7031 0.619141 12.1152 0.755859 9.58594C0.892578 7.125 1.43945 4.9375 3.2168 3.16016C5.0625 1.38281 7.18164 0.835938 9.64258 0.699219C12.1719 0.5625 19.7598 0.5625 22.2891 0.699219C24.75 0.835938 26.9375 1.38281 28.7148 3.16016C30.4922 4.9375 31.0391 7.125 31.1758 9.58594ZM27.8945 24.8984C28.7148 22.916 28.5098 18.1309 28.5098 15.875C28.5098 13.6875 28.7148 8.90234 27.8945 6.85156C27.3477 5.55273 26.3223 4.45898 25.0234 3.98047C22.9727 3.16016 18.1875 3.36523 16 3.36523C13.7441 3.36523 8.95898 3.16016 6.97656 3.98047C5.60938 4.52734 4.58398 5.55273 4.03711 6.85156C3.2168 8.90234 3.42188 13.6875 3.42188 15.875C3.42188 18.1309 3.2168 22.916 4.03711 24.8984C4.58398 26.2656 5.60938 27.291 6.97656 27.8379C8.95898 28.6582 13.7441 28.4531 16 28.4531C18.1875 28.4531 22.9727 28.6582 25.0234 27.8379C26.3223 27.291 27.416 26.2656 27.8945 24.8984Z" fill="#26235C"/>
</svg>
