<svg width="32" height="31" viewBox="0 0 32 31" fill="none" xmlns="http://www.w3.org/2000/svg">
<path d="M7.52344 31H1.16602V10.5605H7.52344V31ZM4.37891 7.75781C3.3763 7.75781 2.51042 7.39323 1.78125 6.66406C1.05208 5.9349 0.6875 5.06901 0.6875 4.06641C0.6875 3.0638 1.05208 2.19792 1.78125 1.46875C2.51042 0.739583 3.3763 0.375 4.37891 0.375C5.01693 0.375 5.60938 0.534505 6.15625 0.853516C6.7487 1.17253 7.20443 1.62826 7.52344 2.2207C7.88802 2.76758 8.07031 3.38281 8.07031 4.06641C8.07031 4.70443 7.88802 5.31966 7.52344 5.91211C7.20443 6.45898 6.7487 6.91471 6.15625 7.2793C5.60938 7.59831 5.01693 7.75781 4.37891 7.75781ZM31.3125 31H24.9551V21.0195C24.9551 20.2448 24.9323 19.6296 24.8867 19.1738C24.8411 18.6725 24.7272 18.1257 24.5449 17.5332C24.3626 16.8952 24.0208 16.4167 23.5195 16.0977C23.0638 15.7786 22.4486 15.6191 21.6738 15.6191C20.1699 15.6191 19.1445 16.0977 18.5977 17.0547C18.0964 18.0117 17.8457 19.2878 17.8457 20.8828V31H11.4883V10.5605H17.6406V13.3633H17.709C18.1647 12.4518 18.9167 11.6771 19.9648 11.0391C21.013 10.3555 22.2663 10.0137 23.7246 10.0137C25.2741 10.0137 26.5501 10.2643 27.5527 10.7656C28.6009 11.2214 29.3757 11.9277 29.877 12.8848C30.4238 13.7962 30.7884 14.7988 30.9707 15.8926C31.1986 16.9863 31.3125 18.2852 31.3125 19.7891V31Z" fill="#26235C"/>
</svg>
