<svg width="36" height="30" viewBox="0 0 36 30" fill="none" xmlns="http://www.w3.org/2000/svg">
<path d="M31.877 7.76562C31.877 8.10742 31.877 8.38086 31.877 8.72266C31.877 18.2246 24.6992 29.0938 11.5059 29.0938C7.4043 29.0938 3.64453 27.9316 0.5 25.8809C1.04688 25.9492 1.59375 26.0176 2.20898 26.0176C5.55859 26.0176 8.63477 24.8555 11.0957 22.9414C7.95117 22.873 5.28516 20.8223 4.39648 17.9512C4.875 18.0195 5.28516 18.0879 5.76367 18.0879C6.37891 18.0879 7.0625 17.9512 7.60938 17.8145C4.32812 17.1309 1.86719 14.2598 1.86719 10.7734V10.7051C2.82422 11.252 3.98633 11.5254 5.14844 11.5938C3.16602 10.2949 1.93555 8.10742 1.93555 5.64648C1.93555 4.2793 2.27734 3.04883 2.89258 2.02344C6.44727 6.33008 11.7793 9.20117 17.7266 9.54297C17.5898 8.99609 17.5215 8.44922 17.5215 7.90234C17.5215 3.9375 20.7344 0.724609 24.6992 0.724609C26.75 0.724609 28.5957 1.54492 29.9629 2.98047C31.5352 2.63867 33.1074 2.02344 34.4746 1.20312C33.9277 2.91211 32.834 4.2793 31.3301 5.16797C32.7656 5.03125 34.2012 4.62109 35.4316 4.07422C34.4746 5.50977 33.2441 6.74023 31.877 7.76562Z" fill="#26235C"/>
</svg>
